<?xml version="1.0" encoding="UTF-8"?><svg id="Layer_2" xmlns="http://www.w3.org/2000/svg" viewBox="0 0 40 40"><defs><style>.cls-1{fill:#003580;}.cls-1,.cls-2,.cls-3{stroke-width:0px;}.cls-2{fill:#fff;}.cls-3{fill:#00bafc;}</style></defs><g id="Layer_1-2"><circle class="cls-1" cx="20" cy="20" r="20"/><path class="cls-2" d="M19.81,25.03h-2.94v-3.52c0-.75.29-1.14.93-1.23h2.01c1.43,0,2.36.9,2.36,2.36s-.9,2.39-2.36,2.39h0ZM16.87,15.54v-.93c0-.81.34-1.2,1.09-1.25h1.51c1.29,0,2.06.77,2.06,2.07,0,.98-.53,2.13-2.02,2.13h-2.65v-2.03ZM23.56,19.05l-.53-.3.46-.4c.54-.46,1.45-1.51,1.45-3.31,0-2.76-2.14-4.54-5.45-4.54h-3.78s-.43,0-.43,0c-.98.04-1.77.84-1.78,1.82v15.66h6.06c3.68,0,6.06-2,6.06-5.11,0-1.67-.77-3.1-2.06-3.83Z"/><path class="cls-3" d="M27.2,25.82c0-1.2.97-2.16,2.15-2.16s2.16.97,2.16,2.16-.97,2.16-2.16,2.16-2.15-.97-2.15-2.16"/></g></svg>