<?xml version="1.0" encoding="UTF-8"?><svg id="Layer_2" xmlns="http://www.w3.org/2000/svg" viewBox="0 0 40.05 40.05"><defs><style>.cls-1{fill:#191e3b;}.cls-1,.cls-2,.cls-3{stroke-width:0px;}.cls-2{fill:#fddb32;}.cls-3{fill:#ef3346;}</style></defs><g id="Layer_1-2"><path class="cls-3" d="M20.03,40.05c11.06,0,20.03-8.97,20.03-20.03S31.09,0,20.03,0,0,8.97,0,20.03s8.97,20.03,20.03,20.03Z"/><path class="cls-1" d="M14.75,17.91c0-.31-.21-.51-.51-.51h-3.57c-.31,0-.51.21-.51.51v3.56c0,.31.21.51.51.51h3.56c.31,0,.51-.21.51-.51v-3.56h.02Z"/><path class="cls-1" d="M22.61,25.79c0-.31-.23-.51-.51-.51h-3.56c-.31,0-.51.21-.51.51v3.56c0,.31.21.51.51.51h3.56c.31,0,.51-.21.51-.51v-3.56Z"/><path class="cls-2" d="M22.61,17.91c0-.31-.21-.51-.51-.51h-3.56c-.31,0-.51.21-.51.51v3.56c0,.31.21.51.51.51h3.56c.31,0,.51-.21.51-.51v-3.56Z"/><path class="cls-1" d="M31.74,10.62c0-1.3-1.05-2.35-2.35-2.35H11.87c-.35,0-.56.13-.77.35l-3.52,3.51c-.26.26-.08.66.31.66h19.34v19.34c0,.39.39.56.66.31l3.52-3.51c.23-.23.34-.43.34-.79V10.62Z"/></g></svg>