<?xml version="1.0" encoding="UTF-8"?><svg id="Layer_2" xmlns="http://www.w3.org/2000/svg" viewBox="0 0 40 40"><defs><style>.cls-1{fill:#fcaf17;}.cls-1,.cls-2,.cls-3,.cls-4{stroke-width:0px;}.cls-2{fill-rule:evenodd;}.cls-2,.cls-3{fill:#fff;}.cls-4{fill:#297fff;}</style></defs><g id="Layer_1-2"><circle class="cls-4" cx="20" cy="20" r="20"/><path class="cls-3" d="M25.83,17.64c-.33,0-.65.07-.94.21-.29.14-.56.34-.76.59v-.51h-1.71v8.35h1.9v-2.92c.42.36.96.55,1.52.55.82-.01,1.59-.35,2.16-.93.57-.58.88-1.37.87-2.19.01-.82-.3-1.6-.87-2.19-.57-.59-1.35-.92-2.16-.93v-.02ZM28.87,20.78c.01-.82-.3-1.6-.87-2.19-.57-.59-1.35-.92-2.16-.93l3.04,3.12ZM25.64,22.17c-.28.01-.55-.06-.79-.2-.24-.15-.42-.36-.54-.61-.11-.25-.15-.53-.1-.81.05-.27.17-.53.37-.73.19-.2.44-.34.71-.4.27-.06.55-.03.81.07.26.1.48.28.63.51.16.23.24.5.24.78,0,.18-.03.36-.09.52-.06.17-.16.32-.28.45-.12.13-.27.23-.43.3-.16.07-.34.11-.52.11Z"/><path class="cls-1" d="M32,22.76c0,.23-.07.45-.19.63-.12.19-.3.33-.51.42-.21.09-.44.11-.66.07s-.42-.15-.58-.31c-.16-.16-.27-.36-.31-.58-.04-.22-.02-.45.06-.66.09-.21.23-.39.42-.51.19-.13.41-.19.63-.19.15,0,.3.03.44.09.14.06.26.14.37.25.11.11.19.23.25.37.06.14.09.29.09.44Z"/><path class="cls-2" d="M20.14,17.13c-.21,0-.42-.06-.59-.18-.18-.12-.31-.28-.39-.48-.08-.19-.1-.41-.06-.62.04-.21.14-.4.29-.55.15-.15.34-.25.55-.29.21-.04.42-.02.62.06.19.08.36.22.48.39s.18.38.18.59c0,.14-.03.28-.08.41-.05.13-.13.25-.23.35-.1.1-.22.18-.34.23-.13.05-.27.08-.41.08Z"/><path class="cls-3" d="M21.09,17.93h-1.9v5.69h1.9v-5.69Z"/><path class="cls-2" d="M8,15.27v1.59h2.47v6.75h1.9v-6.75h2.47v-1.59h-6.83Z"/><path class="cls-3" d="M17.86,17.9c-.34,0-.67.08-.97.24-.3.16-.55.39-.74.68v-.89h-1.71v5.69h1.91v-2.37c0-.21.03-.42.1-.62.08-.2.19-.38.34-.53s.33-.27.53-.34c.2-.08.41-.11.62-.1.1,0,.2.01.3.03v-1.73c-.13-.02-.25-.03-.38-.03"/></g></svg>